<svg width="512" height="512" viewBox="0 0 512 512" fill="none" xmlns="http://www.w3.org/2000/svg">
<path fill-rule="evenodd" clip-rule="evenodd" d="M403.744 283.588C424.482 247.667 359.62 171.374 258.866 113.201C158.082 55.0292 59.5959 36.9962 38.8579 72.9172C27.3399 92.8122 15.8509 112.736 4.36189 132.66C-16.3761 168.582 48.4859 244.845 149.269 303.018C250.024 361.19 348.538 379.253 369.277 343.331C380.766 323.407 392.255 303.512 403.744 283.588Z" fill="#FE9923"/>
<path fill-rule="evenodd" clip-rule="evenodd" d="M258.866 113.202C158.082 55.0291 59.596 36.9961 38.858 72.9171C18.12 108.809 82.982 185.102 183.765 243.275C284.52 301.447 383.034 319.51 403.744 283.588C424.482 247.667 359.62 171.374 258.866 113.202Z" fill="#FECD3D"/>
<path fill-rule="evenodd" clip-rule="evenodd" d="M241.298 143.597C161.136 97.3199 87.1991 75.3019 76.1461 94.4409C65.1221 113.58 121.142 166.604 201.304 212.88C281.466 259.156 355.403 281.174 366.455 262.036C377.508 242.926 321.459 189.902 241.298 143.597Z" fill="#FEA832"/>
<path fill-rule="evenodd" clip-rule="evenodd" d="M108.228 379.34C87.4889 343.419 152.381 267.155 253.135 208.982C353.89 150.781 452.404 132.747 473.143 168.669C484.632 188.593 496.121 208.488 507.639 228.412C528.378 264.333 463.486 340.597 362.732 398.799C261.948 456.971 163.463 475.005 142.724 439.083C131.235 419.188 119.717 399.264 108.228 379.34Z" fill="#FE9923"/>
<path fill-rule="evenodd" clip-rule="evenodd" d="M253.136 208.982C353.891 150.781 452.405 132.747 473.144 168.669C493.883 204.59 428.991 280.854 328.237 339.027C227.453 397.228 128.968 415.262 108.229 379.34C87.4899 343.418 152.381 267.155 253.136 208.982Z" fill="#FECD3D"/>
<path fill-rule="evenodd" clip-rule="evenodd" d="M270.675 239.377C350.836 193.072 424.803 171.083 435.826 190.192C446.879 209.331 390.859 262.355 310.668 308.631C230.507 354.936 156.57 376.925 145.546 357.816C134.493 338.678 190.513 285.654 270.675 239.377Z" fill="#FEA832"/>
<path d="M26.033 207.825C1.84505 176.895 -5.33995 150.855 5.25605 132.523L17.466 111.371C24.574 99.056 31.685 86.735 38.809 74.413C50.151 54.768 80.377 48.342 123.914 56.323C165.088 63.87 214.239 83.313 262.314 111.07C285.344 124.371 306.816 138.796 326.135 153.945L317.511 164.943C298.708 150.198 277.785 136.145 255.325 123.172C208.6 96.195 161.035 77.335 121.394 70.069C84.65 63.333 58.959 67.465 50.91 81.405C35.504 108.102 85.131 175.881 183.566 234.231L176.439 246.253C129.902 218.667 90.021 186.384 64.14 155.351C49.45 137.736 40.049 121.319 36.182 106.909C33.979 110.725 31.772 114.543 29.571 118.358L17.358 139.514C11.321 149.96 15.206 166.672 27.952 186.48L38.523 168.147L50.63 175.128L36.87 198.992C36.928 199.067 36.984 199.141 37.043 199.216C46.488 211.293 58.443 223.781 72.353 236.209L84.327 215.448L96.433 222.43L83.129 245.497C98.06 257.93 114.827 270.183 132.885 281.776L125.334 293.536C83.539 266.704 48.274 236.264 26.033 207.825ZM134.244 105.617C164.07 114.496 201.013 131.23 238.265 152.734C253.758 161.689 268.589 171.05 282.348 180.555L290.291 169.056C276.226 159.339 261.075 149.777 245.255 140.633C207.082 118.596 169.073 101.403 138.231 92.222C103.505 81.884 82.256 82.946 75.078 95.375C67.894 107.795 77.599 126.722 103.922 151.629C127.298 173.748 161.194 198.073 199.38 220.131C201.859 221.555 204.365 222.979 206.843 224.376L213.702 212.2C211.258 210.823 208.785 209.418 206.355 208.022C169.1 186.501 136.132 162.868 113.526 141.478C88.492 117.79 85.342 105.54 87.177 102.368C89.013 99.193 101.211 95.784 134.244 105.617ZM479.969 308.43C452.845 340.327 411.435 373.178 363.369 400.93C315.279 428.688 266.119 448.13 224.944 455.677C212.746 457.913 201.588 459.019 191.602 459.019C165.944 459.019 147.999 451.728 139.833 437.583C132.007 424.011 124.169 410.442 116.336 396.883L106.281 379.474C94.936 359.823 104.48 330.429 133.157 296.706C160.284 264.806 201.703 231.954 249.784 204.202C297.849 176.451 347.006 157.012 388.198 149.466C431.744 141.492 461.972 147.911 473.318 167.547L506.845 225.69C518.187 245.322 508.644 274.708 479.969 308.43ZM118.384 372.487L118.385 372.488C126.433 386.426 152.125 390.556 188.872 383.822C228.515 376.556 276.089 357.696 322.83 330.718C369.552 303.742 409.668 271.973 435.786 241.264C459.992 212.803 469.261 188.484 461.218 174.543L461.213 174.535C453.167 160.609 427.471 156.482 390.716 163.214C351.057 170.479 303.487 189.334 256.771 216.307C210.04 243.281 169.921 275.049 143.804 305.762C119.599 334.222 110.334 358.543 118.384 372.487ZM494.74 232.676L475.938 200.069C471.93 214.964 462.01 231.999 446.431 250.317C419.303 282.213 377.889 315.065 329.817 342.82C281.727 370.578 232.567 390.02 191.392 397.567C179.194 399.803 168.036 400.908 158.05 400.909C148.676 400.909 140.338 399.932 133.124 398.007C139.397 408.868 145.673 419.731 151.939 430.598C158.049 441.18 174.343 446.102 197.917 444.912L187.331 426.544L199.44 419.566L213.189 443.423C216.185 443.004 219.261 442.51 222.425 441.93C235.27 439.575 248.952 435.997 263.165 431.326L251.158 410.538L263.26 403.548L276.599 426.643C291.457 421.173 306.775 414.593 322.239 407.025L309.942 385.695L322.05 378.715L334.732 400.714C341.947 396.953 349.174 392.987 356.382 388.827C363.58 384.671 370.619 380.401 377.476 376.039L364.772 354.042L376.874 347.053L389.189 368.376C403.471 358.772 416.825 348.798 428.989 338.667L415.665 315.564L427.771 308.582L439.762 329.374C450.916 319.397 460.859 309.332 469.323 299.378C471.405 296.929 473.369 294.514 475.228 292.131L461.469 268.293L473.573 261.307L484.157 279.643C496.97 259.82 500.851 243.253 494.74 232.676ZM142.55 358.511C135.382 346.086 145.091 327.158 171.405 302.251C194.791 280.115 228.684 255.793 266.842 233.766C305.015 211.729 343.024 194.537 373.866 185.355C408.593 175.017 429.841 176.079 437.021 188.512C444.202 200.945 434.496 219.878 408.175 244.784C384.799 266.903 350.902 291.221 312.729 313.258C274.556 335.295 236.547 352.488 205.705 361.669C189.95 366.359 176.97 368.703 166.818 368.703C154.593 368.702 146.472 365.304 142.55 358.511ZM154.654 351.525C156.486 354.698 168.684 358.107 201.717 348.274C231.543 339.395 268.486 322.661 305.741 301.154C342.996 279.648 375.962 256.023 398.568 234.633C423.604 210.943 426.751 198.678 424.917 195.502C423.082 192.326 410.884 188.918 377.852 198.75C348.026 207.629 311.082 224.363 273.828 245.87C236.59 267.368 203.627 290.995 181.011 312.402C155.979 336.096 152.824 348.354 154.654 351.525ZM54.506 297.926H40.531V315.636H22.821V329.611H40.531V347.321H54.506V329.611H72.216V315.636H54.506V297.926ZM352.604 136.133H366.579V118.423H384.261V104.448H366.58V86.738H352.605V104.448H334.895V118.423H352.605V136.133H352.604Z" fill="black"/>
</svg>
