<svg width="24" height="24" viewBox="0 0 24 24" fill="none" xmlns="http://www.w3.org/2000/svg">
<g id="Icon" clip-path="url(#clip0_10379_71)">
<g id="Group">
<path id="Vector" d="M12.0013 4.75C13.7712 4.75 15.3562 5.36 16.6062 6.55L20.0312 3.125C17.9513 1.19 15.2362 0 12.0013 0C7.31125 0 3.25625 2.69 1.28125 6.61L5.27125 9.705C6.21625 6.86 8.87125 4.75 12.0013 4.75Z" fill="#EA4335"/>
<path id="Vector_2" d="M23.49 12.275C23.49 11.49 23.415 10.73 23.3 10H12V14.51H18.47C18.18 15.99 17.34 17.25 16.08 18.1L19.945 21.1C22.2 19.01 23.49 15.92 23.49 12.275Z" fill="#4285F4"/>
<path id="Vector_3" d="M5.265 14.2944C5.025 13.5694 4.885 12.7994 4.885 11.9994C4.885 11.1994 5.02 10.4294 5.265 9.70437L1.275 6.60938C0.46 8.22938 0 10.0594 0 11.9994C0 13.9394 0.46 15.7694 1.28 17.3894L5.265 14.2944Z" fill="#FBBC05"/>
<path id="Vector_4" d="M11.9984 23.9991C15.2384 23.9991 17.9634 22.9341 19.9434 21.0941L16.0784 18.0941C15.0034 18.8191 13.6184 19.2441 11.9984 19.2441C8.86844 19.2441 6.21344 17.1341 5.26344 14.2891L1.27344 17.3841C3.25344 21.3091 7.30844 23.9991 11.9984 23.9991Z" fill="#34A853"/>
</g>
</g>
<defs>
<clipPath id="clip0_10379_71">
<rect width="24" height="24" fill="white"/>
</clipPath>
</defs>
</svg>
