<svg width="40" height="40" viewBox="0 0 40 40" fill="none" xmlns="http://www.w3.org/2000/svg">
<path d="M15.2308 0H24.7982C28.7746 0 31.9641 1.84478 34.3656 5.53255C35.4534 7.37727 35.9977 9.42429 35.9977 11.6736V25.7261C35.9977 29.4883 34.5151 32.6055 31.5516 35.0761H31.4954C31.4954 35.2239 31.9825 36.8655 32.9587 40H22.7721C22.6965 40 22.4151 39.1329 21.9279 37.3997H15.2308C11.2534 37.3997 8.06396 35.5559 5.6633 31.8672C4.57469 30.0234 4.03125 27.9763 4.03125 25.7261V11.6736C4.03125 7.57954 5.73804 4.29721 9.15265 1.8257C10.9905 0.608559 13.0165 0 15.2308 0ZM14.3303 12.5035V24.8963C14.3303 26.5561 15.0989 27.755 16.6378 28.4924C17.0502 28.7137 17.6129 28.8243 18.3261 28.8243H19.3391C19.2266 28.5296 18.9452 27.6262 18.495 26.1134H25.6987V12.5034C25.6987 10.8437 24.9293 9.64555 23.3912 8.90731C22.9779 8.68602 22.4151 8.57537 21.7029 8.57537H18.3261C16.4874 8.57537 15.2114 9.46057 14.4992 11.231C14.3866 11.6001 14.3303 12.0246 14.3303 12.5035Z" fill="#FBCC00"/>
</svg>
